<?xml version="1.0" encoding="utf-8"?>
<!-- Generator: Adobe Illustrator 16.0.0, SVG Export Plug-In . SVG Version: 6.00 Build 0)  -->
<!DOCTYPE svg PUBLIC "-//W3C//DTD SVG 1.1//EN" "http://www.w3.org/Graphics/SVG/1.1/DTD/svg11.dtd">
<svg version="1.1" id="Layer_1" xmlns="http://www.w3.org/2000/svg" xmlns:xlink="http://www.w3.org/1999/xlink" x="0px" y="0px"
	 width="22px" height="22px" viewBox="3.5 3.5 22 22" enable-background="new 3.5 3.5 22 22" xml:space="preserve">
<g>
	<g>
		<line fill="#FFFFFF" x1="8.842" y1="3.824" x2="20.158" y2="13.957"/>
		<g>
			<path fill="#FFFFFF" d="M8.607,4.061c3.772,3.378,7.543,6.755,11.315,10.133c0.318,0.285,0.791-0.186,0.471-0.473
				c-3.77-3.378-7.543-6.756-11.314-10.134C8.759,3.304,8.287,3.773,8.607,4.061L8.607,4.061z"/>
		</g>
	</g>
	<g>
		<line fill="#FFFFFF" x1="8.842" y1="25.166" x2="20.158" y2="13.957"/>
		<g>
			<path fill="#FFFFFF" d="M9.079,25.402c3.771-3.736,7.544-7.473,11.316-11.209c0.307-0.303-0.166-0.773-0.473-0.473
				c-3.771,3.736-7.543,7.475-11.315,11.209C8.302,25.232,8.772,25.705,9.079,25.402L9.079,25.402z"/>
		</g>
	</g>
</g>
</svg>
