<?xml version="1.0" encoding="utf-8"?>
<!-- Generator: Adobe Illustrator 16.0.0, SVG Export Plug-In . SVG Version: 6.00 Build 0)  -->
<!DOCTYPE svg PUBLIC "-//W3C//DTD SVG 1.1//EN" "http://www.w3.org/Graphics/SVG/1.1/DTD/svg11.dtd">
<svg version="1.1" id="Layer_1" xmlns="http://www.w3.org/2000/svg" xmlns:xlink="http://www.w3.org/1999/xlink" x="0px" y="0px"
	 width="21px" height="16px" viewBox="0 0 21 16" enable-background="new 0 0 21 16" xml:space="preserve">
<path fill="#FFFFFF" d="M18.947,2.153h-4.084V2.048c0-1.128-0.92-2.048-2.052-2.048H8.189C7.059,0,6.137,0.919,6.137,2.048v0.105
	H2.052C0.921,2.153,0,3.071,0,4.2v9.751C0,15.081,0.921,16,2.052,16h16.895C20.08,16,21,15.081,21,13.951V4.2
	C21,3.071,20.08,2.153,18.947,2.153z M7.453,2.048c0-0.405,0.332-0.735,0.736-0.735h4.621c0.406,0,0.737,0.331,0.737,0.735v0.105
	H7.453V2.048z M2.052,3.465h16.895c0.406,0,0.736,0.33,0.736,0.734v1.379c-0.016,0.047-0.025,0.096-0.025,0.147
	c0,0.351-0.115,0.795-1,1.111l-5.062,1.278c-0.073-0.67-0.688-1.194-1.435-1.194H8.838c-0.75,0-1.368,0.529-1.434,1.204L2.303,6.836
	C1.548,6.566,1.355,6.204,1.316,5.883V4.2C1.316,3.795,1.646,3.465,2.052,3.465z M12.726,8.247v0.857
	c0,0.245-0.258,0.452-0.565,0.452H8.838c-0.306,0-0.564-0.207-0.564-0.452V8.247c0-0.245,0.258-0.451,0.564-0.451h3.323
	C12.468,7.795,12.726,8.001,12.726,8.247z M1.316,12.433V7.324c0.205,0.134,0.442,0.249,0.715,0.345
	C2.044,7.672,2.056,7.676,2.069,7.68l5.328,1.346v0.078c0,0.73,0.646,1.326,1.44,1.326h3.323c0.795,0,1.441-0.596,1.441-1.326v-0.09
	l5.29-1.334c0.014-0.004,0.029-0.008,0.039-0.012c0.291-0.102,0.541-0.226,0.752-0.37v5.135v1.354v0.164
	c0,0.405-0.33,0.734-0.736,0.734H2.052c-0.406,0-0.736-0.329-0.736-0.734v-0.164V12.433z"/>
</svg>
