<?xml version="1.0" encoding="utf-8"?>
<!-- Generator: Adobe Illustrator 16.0.0, SVG Export Plug-In . SVG Version: 6.00 Build 0)  -->
<!DOCTYPE svg PUBLIC "-//W3C//DTD SVG 1.1//EN" "http://www.w3.org/Graphics/SVG/1.1/DTD/svg11.dtd">
<svg version="1.1" id="Layer_1" xmlns="http://www.w3.org/2000/svg" xmlns:xlink="http://www.w3.org/1999/xlink" x="0px" y="0px"
	 width="22px" height="22px" viewBox="0 0 22 22" enable-background="new 0 0 22 22" xml:space="preserve">
<g>
	<g opacity="0.75">
		<path fill="#FFFFFF" d="M15.492,10.337c2.063,0,3.741-1.735,3.741-3.867c0-2.131-1.678-3.867-3.741-3.867
			c-0.957,0-1.832,0.376-2.494,0.99c-0.763,0.708,0.4,1.694-0.144,2.72c-0.359,0.676-0.882,1.646-0.504,2.25
			C13.017,9.629,14.176,10.337,15.492,10.337z"/>
		<path fill="#FFFFFF" d="M14.675,18.646c0.27,0.031,0.543,0.047,0.817,0.047c2.647,0,5.115-1.473,6.441-3.844
			c0.089-0.158,0.089-0.352,0-0.509c-0.935-1.672-2.43-2.911-4.208-3.488c-0.23-0.075-0.48,0.037-0.585,0.261
			c-0.375,0.798-0.94,1.465-1.648,1.949c-0.706-0.484-1.272-1.151-1.646-1.949c-0.106-0.224-0.356-0.336-0.586-0.261
			c-0.707,0.229-1.367,0.562-1.966,0.986l5.88,4.006L14.675,18.646z"/>
	</g>
	<g>
		<path fill="#FFFFFF" d="M8.896,10.575c2.819,0,5.111-2.371,5.111-5.287C14.008,2.374,11.716,0,8.896,0S3.783,2.374,3.783,5.288
			C3.783,8.204,6.077,10.575,8.896,10.575z M8.896,1.383c2.083,0,3.776,1.75,3.776,3.905s-1.693,3.907-3.776,3.907
			S5.119,7.443,5.119,5.288S6.813,1.383,8.896,1.383z"/>
		<path fill="#FFFFFF" d="M17.701,16.05c-1.278-2.287-3.321-3.981-5.753-4.771c-0.315-0.102-0.657,0.051-0.801,0.355
			c-0.511,1.091-1.284,2.005-2.251,2.666c-0.969-0.661-1.741-1.575-2.253-2.666c-0.144-0.305-0.485-0.457-0.801-0.355
			c-2.432,0.79-4.476,2.484-5.754,4.771c-0.118,0.213-0.118,0.479,0,0.692C1.903,19.986,5.277,22,8.896,22
			c3.617,0,6.992-2.014,8.805-5.258C17.822,16.528,17.822,16.263,17.701,16.05z M12.068,12.782c0.368,0.146,0.724,0.318,1.067,0.512
			c-0.542,0.972-1.307,2.123-2.278,3.016c-0.108-0.1-0.222-0.206-0.339-0.314c-0.239-0.221-0.483-0.449-0.736-0.651
			C10.717,14.67,11.495,13.804,12.068,12.782z M8.009,15.344c-0.253,0.202-0.496,0.431-0.736,0.651
			c-0.115,0.108-0.23,0.215-0.338,0.314c-0.973-0.893-1.737-2.044-2.279-3.016c0.344-0.193,0.7-0.366,1.068-0.512
			C6.296,13.804,7.075,14.67,8.009,15.344z M9.34,20.605v-3.042c0-0.258-0.199-0.463-0.443-0.463c-0.245,0-0.445,0.205-0.445,0.463
			v3.042c-2.843-0.15-5.467-1.725-7.004-4.209c0.644-1.046,1.479-1.931,2.449-2.62c0.632,1.129,1.558,2.497,2.755,3.49
			c0.162,0.135,0.391,0.137,0.553,0.005c0.222-0.178,0.437-0.376,0.665-0.59c0.336-0.316,0.683-0.641,1.027-0.861
			c0.344,0.221,0.689,0.545,1.025,0.861c0.229,0.214,0.444,0.412,0.665,0.59c0.081,0.065,0.177,0.099,0.274,0.099
			c0.097,0,0.197-0.035,0.278-0.104c1.197-0.993,2.122-2.361,2.755-3.49c0.971,0.689,1.806,1.574,2.449,2.62
			C14.807,18.881,12.184,20.455,9.34,20.605z"/>
	</g>
</g>
</svg>
