<?xml version="1.0" encoding="utf-8"?>
<!-- Generator: Adobe Illustrator 16.0.0, SVG Export Plug-In . SVG Version: 6.00 Build 0)  -->
<!DOCTYPE svg PUBLIC "-//W3C//DTD SVG 1.1//EN" "http://www.w3.org/Graphics/SVG/1.1/DTD/svg11.dtd">
<svg version="1.1" id="Layer_1" xmlns="http://www.w3.org/2000/svg" xmlns:xlink="http://www.w3.org/1999/xlink" x="0px" y="0px"
	 width="18px" height="22px" viewBox="-0.718 -0.081 18 22" enable-background="new -0.718 -0.081 18 22" xml:space="preserve">
<g>
	<g>
		<path fill="none" stroke="#FAB230" stroke-miterlimit="10" d="M8.281,10.486c2.535,0,4.597-2.049,4.597-4.568
			s-2.062-4.566-4.597-4.566c-2.534,0-4.596,2.048-4.596,4.566S5.748,10.486,8.281,10.486z"/>
		<path fill="none" stroke="#FAB230" stroke-miterlimit="10" d="M16.199,15.423c-1.147-1.975-2.985-3.438-5.174-4.12
			c-0.283-0.088-0.589,0.043-0.72,0.308c-0.459,0.939-1.152,1.729-2.024,2.302c-0.87-0.573-1.565-1.362-2.024-2.302
			c-0.13-0.265-0.437-0.396-0.72-0.308c-2.187,0.682-4.024,2.146-5.173,4.12c-0.108,0.184-0.108,0.413,0,0.597
			c1.63,2.803,4.666,4.543,7.918,4.543c3.253,0,6.287-1.74,7.917-4.543C16.309,15.836,16.309,15.606,16.199,15.423z"/>
	</g>
</g>
</svg>
