<?xml version="1.0" encoding="utf-8"?>
<!-- Generator: Adobe Illustrator 16.0.0, SVG Export Plug-In . SVG Version: 6.00 Build 0)  -->
<!DOCTYPE svg PUBLIC "-//W3C//DTD SVG 1.1//EN" "http://www.w3.org/Graphics/SVG/1.1/DTD/svg11.dtd">
<svg version="1.1" id="Layer_1" xmlns="http://www.w3.org/2000/svg" xmlns:xlink="http://www.w3.org/1999/xlink" x="0px" y="0px"
	 width="22px" height="22px" viewBox="6 1 22 22" enable-background="new 6 1 22 22" xml:space="preserve">
<path fill="#FAB230" d="M25.846,4.5H8.154C6.966,4.5,6,5.465,6,6.65V17.35c0,1.185,0.966,2.15,2.154,2.15h17.691
	c1.188,0,2.154-0.966,2.154-2.15V6.65C28,5.465,27.033,4.5,25.846,4.5z M25.846,5.884c0.102,0,0.198,0.021,0.287,0.057l-8.913,6.965
	L8.225,5.884H25.846z M8.493,18.114l5.959-4.192c0.209-0.147,0.259-0.435,0.111-0.643s-0.435-0.259-0.645-0.11L7.477,17.7
	c-0.055-0.105-0.089-0.223-0.089-0.351V6.65c0-0.077,0.015-0.15,0.036-0.221l9.226,7.203c0.168,0.13,0.369,0.195,0.57,0.195
	s0.402-0.065,0.57-0.195l8.823-6.896V17.35c0,0.015-0.004,0.029-0.005,0.045l-6.007-4.226c-0.209-0.148-0.497-0.098-0.645,0.11
	c-0.146,0.208-0.098,0.495,0.111,0.643l5.936,4.176c-0.052,0.011-0.104,0.017-0.158,0.017H8.493z"/>
</svg>
