<?xml version="1.0" encoding="utf-8"?>
<!-- Generator: Adobe Illustrator 16.0.0, SVG Export Plug-In . SVG Version: 6.00 Build 0)  -->
<!DOCTYPE svg PUBLIC "-//W3C//DTD SVG 1.1//EN" "http://www.w3.org/Graphics/SVG/1.1/DTD/svg11.dtd">
<svg version="1.1" id="Layer_1" xmlns="http://www.w3.org/2000/svg" xmlns:xlink="http://www.w3.org/1999/xlink" x="0px" y="0px"
	 width="22px" height="22px" viewBox="-3 0 22 22" enable-background="new -3 0 22 22" xml:space="preserve">
<g>
	<g>
		<path fill="#FAB230" d="M15.145,1.379h-1.287V0.463C13.857,0.208,13.652,0,13.402,0s-0.45,0.208-0.45,0.463v0.916h-1.259V0.463
			c0-0.256-0.2-0.463-0.45-0.463s-0.454,0.208-0.454,0.463v0.916H9.534V0.463C9.534,0.208,9.33,0,9.08,0
			c-0.25,0-0.451,0.208-0.451,0.463v0.916H7.372V0.463C7.372,0.208,7.17,0,6.919,0c-0.25,0-0.453,0.208-0.453,0.463v0.916H5.211
			V0.463C5.211,0.208,5.008,0,4.757,0c-0.25,0-0.451,0.208-0.451,0.463v0.916H3.048V0.463C3.048,0.208,2.847,0,2.599,0
			c-0.25,0-0.455,0.208-0.455,0.463v0.916H0.857C0.109,1.379-0.5,2-0.5,2.765v17.853C-0.5,21.381,0.109,22,0.857,22h14.285
			c0.748,0,1.357-0.619,1.357-1.383V2.765C16.5,2,15.891,1.379,15.145,1.379z M0.857,20.616V6.156h9.72
			c0.251,0,0.455-0.207,0.455-0.462c0-0.255-0.203-0.461-0.455-0.461h-9.72V2.764h1.286v0.953c0,0.254,0.204,0.46,0.455,0.46
			c0.248,0,0.45-0.206,0.45-0.46V2.765h1.258v0.953c0,0.254,0.2,0.46,0.451,0.46s0.454-0.206,0.454-0.46V2.765h1.255v0.953
			c0,0.254,0.203,0.46,0.453,0.46c0.251,0,0.452-0.206,0.452-0.46V2.765h1.258v0.953c0,0.254,0.201,0.46,0.451,0.46
			c0.25,0,0.454-0.206,0.454-0.46V2.765h1.255v0.953c0,0.254,0.203,0.46,0.454,0.46c0.25,0,0.45-0.206,0.45-0.46V2.765h1.259v0.953
			c0,0.254,0.2,0.46,0.45,0.46s0.455-0.206,0.455-0.46V2.765h1.285v2.469h-2.027c-0.251,0-0.456,0.206-0.456,0.461
			c0,0.255,0.205,0.462,0.456,0.462h2.027v14.46H0.857V20.616z"/>
		<path fill="#FAB230" d="M12.895,9.205h-5.51c-0.249,0-0.453,0.207-0.453,0.461c0,0.256,0.204,0.461,0.453,0.461h5.51
			c0.25,0,0.453-0.205,0.453-0.461C13.348,9.412,13.145,9.205,12.895,9.205z"/>
		<path fill="#FAB230" d="M4.838,9.205H3.106c-0.25,0-0.454,0.207-0.454,0.461c0,0.256,0.204,0.461,0.454,0.461h1.731
			c0.251,0,0.456-0.205,0.456-0.461C5.293,9.412,5.089,9.205,4.838,9.205z"/>
		<path fill="#FAB230" d="M12.895,11.625h-5.51c-0.249,0-0.453,0.207-0.453,0.463c0,0.258,0.204,0.459,0.453,0.459h5.51
			c0.25,0,0.453-0.201,0.453-0.459C13.348,11.833,13.145,11.625,12.895,11.625z"/>
		<path fill="#FAB230" d="M4.838,11.625H3.106c-0.25,0-0.454,0.207-0.454,0.463c0,0.258,0.204,0.459,0.454,0.459h1.731
			c0.251,0,0.456-0.201,0.456-0.459C5.293,11.833,5.089,11.625,4.838,11.625z"/>
		<path fill="#FAB230" d="M12.895,14.161h-5.51c-0.249,0-0.453,0.207-0.453,0.463s0.204,0.461,0.453,0.461h5.51
			c0.25,0,0.453-0.205,0.453-0.461S13.145,14.161,12.895,14.161z"/>
		<path fill="#FAB230" d="M4.838,14.161H3.106c-0.25,0-0.454,0.207-0.454,0.463s0.204,0.461,0.454,0.461h1.731
			c0.251,0,0.456-0.205,0.456-0.461S5.089,14.161,4.838,14.161z"/>
		<path fill="#FAB230" d="M12.895,16.844h-5.51c-0.249,0-0.453,0.207-0.453,0.463s0.204,0.459,0.453,0.459h5.51
			c0.25,0,0.453-0.203,0.453-0.459S13.145,16.844,12.895,16.844z"/>
		<path fill="#FAB230" d="M4.838,16.844H3.106c-0.25,0-0.454,0.207-0.454,0.463s0.204,0.459,0.454,0.459h1.731
			c0.251,0,0.456-0.203,0.456-0.459S5.089,16.844,4.838,16.844z"/>
	</g>
</g>
</svg>
