<?xml version="1.0" encoding="utf-8"?>
<!-- Generator: Adobe Illustrator 16.0.0, SVG Export Plug-In . SVG Version: 6.00 Build 0)  -->
<!DOCTYPE svg PUBLIC "-//W3C//DTD SVG 1.1//EN" "http://www.w3.org/Graphics/SVG/1.1/DTD/svg11.dtd">
<svg version="1.1" id="Layer_1" xmlns="http://www.w3.org/2000/svg" xmlns:xlink="http://www.w3.org/1999/xlink" x="0px" y="0px"
	 width="22px" height="22px" viewBox="0 0 22 22" enable-background="new 0 0 22 22" xml:space="preserve">
<g>
	<g>
		<path fill="#FFFFFF" d="M18.145,1.379h-1.287V0.463C16.857,0.208,16.652,0,16.402,0s-0.449,0.208-0.449,0.463v0.916h-1.26V0.463
			C14.693,0.207,14.494,0,14.244,0s-0.455,0.208-0.455,0.463v0.916h-1.254V0.463C12.535,0.208,12.33,0,12.08,0
			s-0.451,0.208-0.451,0.463v0.916h-1.256V0.463C10.373,0.208,10.17,0,9.919,0c-0.25,0-0.453,0.208-0.453,0.463v0.916H8.211V0.463
			C8.211,0.208,8.008,0,7.757,0c-0.25,0-0.451,0.208-0.451,0.463v0.916H6.048V0.463C6.048,0.208,5.848,0,5.6,0
			C5.35,0,5.145,0.208,5.145,0.463v0.916H3.857C3.109,1.379,2.5,2,2.5,2.765v17.853C2.5,21.381,3.109,22,3.857,22h14.285
			c0.748,0,1.357-0.619,1.357-1.383V2.765C19.5,2,18.891,1.379,18.145,1.379z M3.857,20.616V6.156h9.721
			c0.25,0,0.455-0.207,0.455-0.462c0-0.255-0.203-0.461-0.455-0.461H3.857V2.764h1.286v0.953c0,0.254,0.204,0.46,0.455,0.46
			c0.248,0,0.45-0.206,0.45-0.46V2.765h1.258v0.953c0,0.254,0.2,0.46,0.451,0.46s0.454-0.206,0.454-0.46V2.765h1.255v0.953
			c0,0.254,0.203,0.46,0.453,0.46c0.251,0,0.452-0.206,0.452-0.46V2.765h1.257v0.953c0,0.254,0.201,0.46,0.451,0.46
			s0.455-0.206,0.455-0.46V2.765h1.254v0.953c0,0.254,0.203,0.46,0.455,0.46c0.25,0,0.449-0.206,0.449-0.46V2.765h1.26v0.953
			c0,0.254,0.199,0.46,0.449,0.46s0.455-0.206,0.455-0.46V2.765h1.285v2.469h-2.027c-0.25,0-0.455,0.206-0.455,0.461
			c0,0.255,0.205,0.462,0.455,0.462h2.027v14.46L3.857,20.616L3.857,20.616z"/>
		<path fill="#FFFFFF" d="M15.895,9.205h-5.509c-0.249,0-0.453,0.207-0.453,0.461c0,0.256,0.204,0.461,0.453,0.461h5.509
			c0.25,0,0.453-0.205,0.453-0.461C16.348,9.412,16.145,9.205,15.895,9.205z"/>
		<path fill="#FFFFFF" d="M7.838,9.205H6.106c-0.25,0-0.454,0.207-0.454,0.461c0,0.256,0.204,0.461,0.454,0.461h1.731
			c0.251,0,0.456-0.205,0.456-0.461C8.293,9.412,8.089,9.205,7.838,9.205z"/>
		<path fill="#FFFFFF" d="M15.895,11.625h-5.509c-0.249,0-0.453,0.207-0.453,0.463c0,0.258,0.204,0.459,0.453,0.459h5.509
			c0.25,0,0.453-0.201,0.453-0.459C16.348,11.833,16.145,11.625,15.895,11.625z"/>
		<path fill="#FFFFFF" d="M7.838,11.625H6.106c-0.25,0-0.454,0.207-0.454,0.463c0,0.258,0.204,0.459,0.454,0.459h1.731
			c0.251,0,0.456-0.201,0.456-0.459C8.293,11.833,8.089,11.625,7.838,11.625z"/>
		<path fill="#FFFFFF" d="M15.895,14.161h-5.509c-0.249,0-0.453,0.207-0.453,0.463s0.204,0.461,0.453,0.461h5.509
			c0.25,0,0.453-0.205,0.453-0.461S16.145,14.161,15.895,14.161z"/>
		<path fill="#FFFFFF" d="M7.838,14.161H6.106c-0.25,0-0.454,0.207-0.454,0.463s0.204,0.461,0.454,0.461h1.731
			c0.251,0,0.456-0.205,0.456-0.461S8.089,14.161,7.838,14.161z"/>
		<path fill="#FFFFFF" d="M15.895,16.844h-5.509c-0.249,0-0.453,0.207-0.453,0.463s0.204,0.459,0.453,0.459h5.509
			c0.25,0,0.453-0.203,0.453-0.459S16.145,16.844,15.895,16.844z"/>
		<path fill="#FFFFFF" d="M7.838,16.844H6.106c-0.25,0-0.454,0.207-0.454,0.463s0.204,0.459,0.454,0.459h1.731
			c0.251,0,0.456-0.203,0.456-0.459S8.089,16.844,7.838,16.844z"/>
	</g>
</g>
</svg>
