<?xml version="1.0" encoding="utf-8"?>
<!-- Generator: Adobe Illustrator 16.0.0, SVG Export Plug-In . SVG Version: 6.00 Build 0)  -->
<!DOCTYPE svg PUBLIC "-//W3C//DTD SVG 1.1//EN" "http://www.w3.org/Graphics/SVG/1.1/DTD/svg11.dtd">
<svg version="1.1" id="Layer_1" xmlns="http://www.w3.org/2000/svg" xmlns:xlink="http://www.w3.org/1999/xlink" x="0px" y="0px"
	 width="15px" height="21px" viewBox="0 0 15 21" enable-background="new 0 0 15 21" xml:space="preserve">
<g>
	<path fill="#FFFFFF" d="M3.404,9.306C3.629,9.252,3.77,9.017,3.719,8.78C3.613,8.284,3.598,7.774,3.671,7.267
		c0.326-2.218,2.306-3.744,4.415-3.4c0.498,0.08,0.967,0.257,1.395,0.527c0.196,0.125,0.452,0.057,0.57-0.15
		c0.118-0.208,0.054-0.478-0.144-0.602c-0.52-0.328-1.09-0.543-1.693-0.643c-2.561-0.417-4.97,1.438-5.365,4.134
		C2.758,7.75,2.777,8.37,2.907,8.973c0.042,0.204,0.216,0.342,0.405,0.342C3.343,9.315,3.373,9.312,3.404,9.306z"/>
	<path fill="#FFFFFF" d="M15,12.575c0-0.627-0.233-1.18-0.627-1.562C14.768,10.054,14.989,9,14.989,7.89
		c0-4.35-3.362-7.89-7.495-7.89C3.362,0,0,3.54,0,7.89c0,2.605,1.209,4.916,3.064,6.353c0.013,0.079,0.03,0.156,0.052,0.234
		c0.071,0.254,0.168,0.481,0.292,0.679c0.672,1.079,1.434,2.3,2.188,3.491c0.767,1.207,1.874,1.957,3.293,2.23
		c0.18,0.033,0.342,0.055,0.5,0.077c0.076,0.011,0.151,0.021,0.227,0.033C9.676,20.995,9.736,21,9.797,21h0.847
		c0.066,0,0.133-0.006,0.199-0.018c0.073-0.013,0.149-0.024,0.224-0.037c0.128-0.021,0.257-0.042,0.384-0.065
		c1.793-0.326,3.146-1.745,3.45-3.618c0.062-0.375,0.094-0.754,0.096-1.124C15,14.732,15,14.556,15,13.988
		C15,13.695,15,13.299,15,12.575z M1.249,7.89c0-3.631,2.796-6.574,6.245-6.574c3.45,0,6.245,2.943,6.245,6.574
		c0,0.921-0.183,1.796-0.509,2.592c-0.058-0.006-0.116-0.01-0.175-0.01c-0.181,0-0.357,0.026-0.526,0.076
		c-0.194-0.194-0.428-0.345-0.688-0.44c-0.044-0.015-0.087-0.027-0.13-0.04c0.205-0.438,0.354-0.914,0.429-1.423
		c0.161-1.093-0.022-2.181-0.53-3.148c-0.111-0.211-0.364-0.289-0.566-0.172c-0.2,0.117-0.274,0.385-0.162,0.596
		c0.417,0.794,0.567,1.691,0.435,2.59c-0.082,0.567-0.276,1.086-0.552,1.542c-0.025,0.006-0.05,0.009-0.075,0.016
		c-0.172-0.165-0.376-0.302-0.611-0.406c-0.18-0.1-0.382-0.152-0.586-0.152H9.449c0-0.565,0-1.101,0-1.531
		c0-1.068-0.674-1.897-1.677-2.064C7.678,5.9,7.584,5.893,7.492,5.893c-0.98,0-1.844,0.831-1.923,1.85
		C5.561,7.875,5.561,7.984,5.561,8.073v3.338c-0.389-0.236-0.74-0.54-1.033-0.908c-0.147-0.186-0.408-0.211-0.586-0.055
		c-0.176,0.155-0.2,0.431-0.053,0.617c0.203,0.256,0.431,0.484,0.676,0.69c-0.507,0.136-0.95,0.476-1.227,0.953
		c-0.011,0.019-0.02,0.038-0.029,0.057C2.045,11.562,1.249,9.824,1.249,7.89z M13.746,16.133c-0.001,0.303-0.027,0.609-0.077,0.908
		c-0.215,1.323-1.167,2.314-2.428,2.543c-0.198,0.035-0.398,0.066-0.598,0.1c-0.282,0-0.565,0-0.847,0
		c-0.227-0.035-0.457-0.06-0.683-0.102c-1.04-0.201-1.885-0.731-2.477-1.666c-0.735-1.157-1.46-2.319-2.185-3.482
		c-0.062-0.098-0.106-0.212-0.138-0.324c-0.135-0.493,0.141-1,0.6-1.093c0.067-0.014,0.132-0.021,0.193-0.021
		c0.279,0,0.517,0.133,0.698,0.381c0.304,0.414,0.592,0.841,0.886,1.262c0.031,0.044,0.062,0.089,0.094,0.134
		c0.008-0.004,0.017-0.006,0.024-0.01c0-0.04,0-0.08,0-0.118c0-1.928,0-4.645,0-6.572c0-0.076,0-0.149,0.006-0.224
		c0.026-0.347,0.348-0.641,0.676-0.641c0.028,0,0.057,0.003,0.086,0.008c0.389,0.064,0.62,0.348,0.62,0.765
		c0.002,1.169,0,3.128,0.002,4.3c0,0.06,0.004,0.124,0.021,0.181c0.028,0.095,0.097,0.146,0.192,0.154c0.008,0,0.015,0,0.021,0
		c0.092,0,0.16-0.049,0.197-0.135c0.021-0.055,0.023-0.121,0.023-0.182c0-0.402-0.001-0.53-0.001-0.53l-0.001,0.374
		c0,0,0-0.129,0-0.529c0-0.265,0.085-0.494,0.299-0.651c0.079-0.056,0.173-0.091,0.258-0.137c0.094,0,0.188,0,0.281,0
		c0.011,0.008,0.019,0.018,0.029,0.021c0.364,0.133,0.534,0.382,0.534,0.786c0,0.396,0,0.523,0,0.523l-0.001-0.386
		c0,0,0,0.126,0,0.523c0,0.038-0.001,0.075,0.003,0.111c0.015,0.127,0.106,0.211,0.224,0.211c0.007,0,0.014,0,0.021-0.001
		c0.123-0.011,0.193-0.1,0.202-0.26v-0.004c0.001-0.01,0.001-0.02,0.001-0.029c0-0.105,0-0.186,0-0.249
		c0.006-0.172,0.045-0.334,0.151-0.475c0.138-0.185,0.339-0.286,0.549-0.286c0.076,0,0.153,0.014,0.229,0.041
		c0.289,0.105,0.474,0.399,0.474,0.752c0,0.396,0,0.523,0,0.523l-0.002-0.387c0,0,0,0.127,0,0.524c0,0.044,0,0.091,0.004,0.136
		c0.015,0.119,0.088,0.18,0.192,0.203c0.012,0.002,0.022,0.003,0.033,0.003c0.083,0,0.172-0.061,0.199-0.149
		c0.019-0.056,0.024-0.12,0.024-0.181c0-0.054,0-0.1,0-0.14c0,0.123,0,0.267,0,0.267s0.001-0.08,0.001-0.311
		c0.002-0.129,0.024-0.266,0.072-0.383c0.11-0.264,0.362-0.421,0.624-0.421c0.048,0,0.096,0.005,0.144,0.017
		c0.337,0.077,0.551,0.379,0.551,0.771C13.749,14.701,13.752,14.007,13.746,16.133z"/>
</g>
</svg>
