<?xml version="1.0" encoding="utf-8"?>
<!-- Generator: Adobe Illustrator 16.0.0, SVG Export Plug-In . SVG Version: 6.00 Build 0)  -->
<!DOCTYPE svg PUBLIC "-//W3C//DTD SVG 1.1//EN" "http://www.w3.org/Graphics/SVG/1.1/DTD/svg11.dtd">
<svg version="1.1" id="Layer_1" xmlns="http://www.w3.org/2000/svg" xmlns:xlink="http://www.w3.org/1999/xlink" x="0px" y="0px"
	 width="18px" height="22px" viewBox="0 0 18 22" enable-background="new 0 0 18 22" xml:space="preserve">
<g>
	<path fill="#FFFFFF" d="M9,10.575c2.852,0,5.172-2.371,5.172-5.287C14.173,2.374,11.853,0,9,0S3.828,2.374,3.828,5.288
		C3.828,8.204,6.148,10.575,9,10.575z M9,1.383c2.107,0,3.821,1.75,3.821,3.905S11.108,9.195,9,9.195S5.179,7.443,5.179,5.288
		S6.893,1.383,9,1.383z"/>
	<path fill="#FFFFFF" d="M17.909,16.05c-1.293-2.287-3.36-3.981-5.821-4.771c-0.319-0.102-0.665,0.051-0.81,0.355
		C10.761,12.725,9.979,13.639,9,14.3c-0.979-0.661-1.761-1.575-2.278-2.666c-0.146-0.305-0.491-0.457-0.81-0.355
		c-2.461,0.79-4.528,2.484-5.821,4.771c-0.121,0.213-0.121,0.479,0,0.692C1.926,19.986,5.34,22,9,22c3.66,0,7.074-2.014,8.909-5.258
		C18.03,16.528,18.03,16.263,17.909,16.05z M12.21,12.782c0.372,0.146,0.733,0.318,1.08,0.512c-0.548,0.972-1.323,2.123-2.305,3.016
		c-0.11-0.1-0.225-0.206-0.343-0.314c-0.242-0.221-0.489-0.449-0.745-0.651C10.842,14.67,11.63,13.804,12.21,12.782z M8.103,15.344
		c-0.255,0.202-0.503,0.431-0.745,0.651c-0.117,0.108-0.233,0.215-0.343,0.314c-0.983-0.893-1.757-2.044-2.305-3.016
		c0.347-0.193,0.708-0.366,1.081-0.512C6.371,13.804,7.158,14.67,8.103,15.344z M9.45,20.605v-3.042
		c0-0.258-0.201-0.463-0.449-0.463c-0.249,0-0.45,0.205-0.45,0.463v3.042c-2.876-0.15-5.531-1.725-7.087-4.209
		c0.652-1.046,1.497-1.931,2.479-2.62c0.64,1.129,1.576,2.497,2.787,3.49c0.163,0.135,0.395,0.137,0.559,0.005
		c0.224-0.178,0.441-0.376,0.674-0.59C8.301,16.365,8.652,16.041,9,15.82c0.348,0.221,0.698,0.545,1.038,0.861
		c0.232,0.214,0.45,0.412,0.674,0.59c0.081,0.065,0.179,0.099,0.277,0.099c0.099,0,0.2-0.035,0.282-0.104
		c1.212-0.993,2.147-2.361,2.788-3.49c0.981,0.689,1.826,1.574,2.478,2.62C14.98,18.881,12.327,20.455,9.45,20.605z"/>
</g>
</svg>
