<?xml version="1.0" encoding="utf-8"?>
<!-- Generator: Adobe Illustrator 16.0.0, SVG Export Plug-In . SVG Version: 6.00 Build 0)  -->
<!DOCTYPE svg PUBLIC "-//W3C//DTD SVG 1.1//EN" "http://www.w3.org/Graphics/SVG/1.1/DTD/svg11.dtd">
<svg version="1.1" id="Layer_1" xmlns="http://www.w3.org/2000/svg" xmlns:xlink="http://www.w3.org/1999/xlink" x="0px" y="0px"
	 width="22px" height="22px" viewBox="0 0 22 22" enable-background="new 0 0 22 22" xml:space="preserve">
<path fill="#FAB230" d="M21.379,2.81c-0.017-0.017-0.034-0.033-0.051-0.048l-2.619-2.28C18.382,0.171,17.939,0,17.459,0
	c-0.549,0-1.081,0.218-1.46,0.598c-0.028,0.027-0.054,0.056-0.078,0.086L13.35,3.93c-0.683,0.735-0.667,1.889,0.048,2.605
	c0.048,0.047,0.099,0.09,0.154,0.128l1.295,0.861c-0.119,0.468-0.82,1.785-3.177,4.143C9.33,14.005,8,14.715,7.526,14.842
	l-0.86-1.292c-0.037-0.057-0.08-0.107-0.126-0.155c-0.355-0.354-0.827-0.549-1.328-0.549c-0.479,0-0.929,0.178-1.278,0.502
	l-3.246,2.57c-0.031,0.025-0.06,0.05-0.088,0.078c-0.754,0.756-0.802,1.985-0.114,2.709l2.279,2.62
	c0.016,0.018,0.031,0.034,0.048,0.051C3.227,21.789,3.862,22,4.7,22l0,0c2.672,0,7.425-2.048,11.339-5.963
	c2.242-2.242,4.059-4.955,5.114-7.641C21.646,7.142,22.656,4.087,21.379,2.81z M14.611,14.609c-3.704,3.705-8.025,5.373-9.911,5.373
	c-0.284,0-0.426-0.038-0.479-0.06l-2.18-2.502l3.127-2.479l0.835,1.254c0.017,0.027,0.036,0.052,0.055,0.076
	c0.318,0.395,0.792,0.61,1.333,0.61h0c1.271,0,3.19-1.275,5.704-3.789c2.579-2.58,3.853-4.535,3.786-5.812
	c-0.026-0.494-0.242-0.93-0.606-1.226c-0.024-0.019-0.051-0.038-0.077-0.055l-1.254-0.836l2.478-3.127l2.507,2.183
	C20.324,5.101,19.073,10.148,14.611,14.609z"/>
</svg>
