<?xml version="1.0" encoding="utf-8"?>
<!-- Generator: Adobe Illustrator 16.0.0, SVG Export Plug-In . SVG Version: 6.00 Build 0)  -->
<!DOCTYPE svg PUBLIC "-//W3C//DTD SVG 1.1//EN" "http://www.w3.org/Graphics/SVG/1.1/DTD/svg11.dtd">
<svg version="1.1" id="Layer_1" xmlns="http://www.w3.org/2000/svg" xmlns:xlink="http://www.w3.org/1999/xlink" x="0px" y="0px"
	 width="22px" height="22px" viewBox="0 0 22 22" enable-background="new 0 0 22 22" xml:space="preserve">
<g>
	<path fill="#FFFFFF" d="M13.919,0.5c-4.18,0-7.583,3.366-7.583,7.505c0,1.701,0.577,3.271,1.544,4.529l-7.033,6.963
		c-0.463,0.457-0.463,1.201,0,1.657c0.231,0.23,0.535,0.347,0.839,0.347c0.305,0,0.607-0.115,0.839-0.347L9.59,14.16
		c1.229,0.85,2.721,1.348,4.329,1.348c4.181,0,7.581-3.367,7.581-7.503C21.5,3.866,18.1,0.5,13.919,0.5z M13.919,13.422
		c-3.018,0-5.473-2.43-5.473-5.417c0-2.987,2.455-5.418,5.473-5.418c3.017,0,5.474,2.431,5.474,5.418
		C19.393,10.992,16.936,13.422,13.919,13.422z"/>
	<path fill="#FFFFFF" d="M15.475,4.268c-0.529-0.229-1.143,0.009-1.381,0.533c-0.236,0.523,0.002,1.139,0.529,1.376
		c0.053,0.024,1.314,0.605,1.17,1.665c-0.076,0.57,0.328,1.096,0.904,1.174c0.047,0.006,0.094,0.009,0.143,0.009
		c0.518,0,0.971-0.38,1.043-0.903C18.168,6.026,16.504,4.713,15.475,4.268z"/>
	<path fill="#FFFFFF" d="M15.221,9.51c-0.279,0-0.551,0.112-0.746,0.309c-0.197,0.192-0.307,0.462-0.307,0.735
		c0,0.276,0.109,0.545,0.307,0.738c0.195,0.195,0.467,0.306,0.746,0.306c0.275,0,0.549-0.11,0.744-0.306
		c0.197-0.193,0.309-0.464,0.309-0.738c0-0.273-0.11-0.543-0.309-0.735C15.77,9.623,15.496,9.51,15.221,9.51z"/>
</g>
</svg>
